<svg width="16" height="17" viewBox="0 0 16 17" fill="none" xmlns="http://www.w3.org/2000/svg">
<path d="M13.2471 8.3859L12.5014 8.30569L12.5014 8.30569L13.2471 8.3859ZM13.1249 9.52235L13.8706 9.60255L13.8706 9.60255L13.1249 9.52235ZM2.87528 9.52234L2.12958 9.60255L2.87528 9.52234ZM2.75305 8.3859L3.49874 8.30569L3.49874 8.30569L2.75305 8.3859ZM5.84012 7.41626L6.49513 7.78158L6.49513 7.78158L5.84012 7.41626ZM7.03311 5.27722L6.3781 4.9119L6.3781 4.9119L7.03311 5.27722ZM8.96705 5.27722L8.31203 5.64254L8.31203 5.64254L8.96705 5.27722ZM10.16 7.41626L10.8151 7.05094L10.8151 7.05094L10.16 7.41626ZM10.6693 8.09972L10.367 8.78612L10.367 8.78612L10.6693 8.09972ZM11.6471 7.62372L11.1178 7.09236L11.1178 7.09236L11.6471 7.62372ZM10.9689 8.14153L10.8662 7.3986L10.8662 7.3986L10.9689 8.14153ZM4.35308 7.62372L3.82378 8.15508L4.35308 7.62372ZM5.03121 8.14153L5.13395 7.3986L5.13394 7.3986L5.03121 8.14153ZM5.33089 8.09972L5.63314 8.78612L5.63314 8.78612L5.33089 8.09972ZM3.80813 13.5624L4.30834 13.0036L4.30834 13.0036L3.80813 13.5624ZM12.192 13.5624L11.6918 13.0036L11.6918 13.0036L12.192 13.5624ZM12.5764 6.78037L13.1439 6.29007L12.5764 6.78037ZM8.60519 4.64872L8.26435 3.98064L8.60519 4.64872ZM7.39497 4.64872L7.73581 3.98064L7.73581 3.98064L7.39497 4.64872ZM12.5014 8.30569L12.3792 9.44214L13.8706 9.60255L13.9928 8.46611L12.5014 8.30569ZM8.72537 13.377H7.27479V14.877H8.72537V13.377ZM3.62098 9.44214L3.49874 8.30569L2.00735 8.46611L2.12958 9.60255L3.62098 9.44214ZM6.49513 7.78158L7.68813 5.64254L6.3781 4.9119L5.18511 7.05094L6.49513 7.78158ZM8.31203 5.64254L9.50503 7.78158L10.8151 7.05094L9.62206 4.9119L8.31203 5.64254ZM9.50503 7.78158C9.61022 7.97018 9.71667 8.16301 9.82209 8.31314C9.93173 8.46929 10.099 8.66812 10.367 8.78612L10.9715 7.41333C11.0698 7.45659 11.0956 7.5166 11.0497 7.45115C11.0283 7.42075 10.9998 7.37559 10.959 7.3057C10.9183 7.23607 10.8727 7.15428 10.8151 7.05094L9.50503 7.78158ZM11.1178 7.09236C11.0339 7.17594 10.9674 7.24211 10.9091 7.29796C10.8506 7.35402 10.8106 7.38967 10.7816 7.41312C10.7192 7.46362 10.7603 7.41325 10.8662 7.3986L11.0717 8.88446C11.3615 8.84439 11.5768 8.69925 11.7251 8.57926C11.8678 8.46385 12.0232 8.30768 12.1764 8.15508L11.1178 7.09236ZM10.367 8.78612C10.5883 8.88356 10.8323 8.91757 11.0717 8.88446L10.8662 7.3986C10.9019 7.39367 10.9383 7.39872 10.9715 7.41333L10.367 8.78612ZM3.82378 8.15508C3.97698 8.30768 4.13241 8.46385 4.27507 8.57926C4.42338 8.69925 4.6387 8.84439 4.92848 8.88446L5.13394 7.3986C5.23991 7.41325 5.28094 7.46362 5.21852 7.41312C5.18954 7.38967 5.14957 7.35402 5.09105 7.29796C5.03276 7.24211 4.96628 7.17594 4.88237 7.09236L3.82378 8.15508ZM5.18511 7.05094C5.12747 7.15428 5.08182 7.23607 5.04118 7.3057C5.00039 7.37559 4.97183 7.42075 4.95049 7.45115C4.90453 7.5166 4.93039 7.45659 5.02863 7.41333L5.63314 8.78612C5.90112 8.66812 6.06843 8.46929 6.17807 8.31314C6.28349 8.16301 6.38994 7.97018 6.49513 7.78158L5.18511 7.05094ZM4.92848 8.88446C5.16788 8.91757 5.41186 8.88356 5.63314 8.78612L5.02863 7.41333C5.06181 7.39871 5.09825 7.39367 5.13395 7.3986L4.92848 8.88446ZM7.27479 13.377C6.30959 13.377 5.65707 13.3755 5.1642 13.3124C4.69227 13.2521 4.46688 13.1455 4.30834 13.0036L3.30793 14.1212C3.78011 14.5439 4.34274 14.7196 4.97381 14.8003C5.58393 14.8784 6.34937 14.877 7.27479 14.877V13.377ZM2.12958 9.60255C2.22739 10.5118 2.30719 11.4265 2.44299 12.168C2.51177 12.5435 2.60024 12.9076 2.72615 13.2295C2.85056 13.5476 3.0298 13.8723 3.30793 14.1212L4.30834 13.0036C4.2711 12.9702 4.20122 12.8829 4.12307 12.6831C4.04641 12.4871 3.97885 12.2276 3.91844 11.8977C3.79585 11.2284 3.72459 10.4054 3.62098 9.44214L2.12958 9.60255ZM12.3792 9.44214C12.2756 10.4054 12.2043 11.2284 12.0817 11.8977C12.0213 12.2276 11.9537 12.4871 11.8771 12.6831C11.7989 12.8829 11.7291 12.9702 11.6918 13.0036L12.6922 14.1212C12.9704 13.8723 13.1496 13.5476 13.274 13.2295C13.3999 12.9076 13.4884 12.5435 13.5572 12.168C13.693 11.4266 13.7728 10.5118 13.8706 9.60255L12.3792 9.44214ZM8.72537 14.877C9.65079 14.877 10.4162 14.8784 11.0264 14.8003C11.6574 14.7196 12.2201 14.5439 12.6922 14.1212L11.6918 13.0036C11.5333 13.1455 11.3079 13.2521 10.836 13.3124C10.3431 13.3755 9.69057 13.377 8.72537 13.377V14.877ZM7.41675 3.46029C7.41675 3.13812 7.67791 2.87695 8.00008 2.87695V1.37695C6.84949 1.37695 5.91675 2.30969 5.91675 3.46029H7.41675ZM8.00008 2.87695C8.32225 2.87695 8.58341 3.13812 8.58341 3.46029H10.0834C10.0834 2.30969 9.15067 1.37695 8.00008 1.37695V2.87695ZM13.5834 6.12695C13.5834 6.26502 13.4715 6.37695 13.3334 6.37695V7.87695C14.2999 7.87695 15.0834 7.09345 15.0834 6.12695H13.5834ZM13.0834 6.12695C13.0834 5.98888 13.1953 5.87695 13.3334 5.87695V4.37695C12.3669 4.37695 11.5834 5.16045 11.5834 6.12695H13.0834ZM13.3334 5.87695C13.4715 5.87695 13.5834 5.98888 13.5834 6.12695H15.0834C15.0834 5.16045 14.2999 4.37695 13.3334 4.37695V5.87695ZM2.66675 6.37695C2.52868 6.37695 2.41675 6.26502 2.41675 6.12695H0.916748C0.916748 7.09345 1.70025 7.87695 2.66675 7.87695V6.37695ZM2.41675 6.12695C2.41675 5.98888 2.52868 5.87695 2.66675 5.87695V4.37695C1.70025 4.37695 0.916748 5.16045 0.916748 6.12695H2.41675ZM2.66675 5.87695C2.80482 5.87695 2.91675 5.98888 2.91675 6.12695H4.41675C4.41675 5.16045 3.63325 4.37695 2.66675 4.37695V5.87695ZM13.3334 6.37695C13.3324 6.37695 13.3313 6.37695 13.3303 6.37694L13.3129 7.87683C13.3197 7.87691 13.3266 7.87695 13.3334 7.87695V6.37695ZM13.9928 8.46611C14.0249 8.16777 14.0537 7.90069 14.0696 7.67661C14.085 7.45926 14.0925 7.23284 14.065 7.02729L12.5782 7.22648C12.5845 7.2732 12.5874 7.37311 12.5734 7.57061C12.5599 7.76138 12.5345 7.99768 12.5014 8.30569L13.9928 8.46611ZM13.3303 6.37694C13.2563 6.37608 13.1903 6.34377 13.1439 6.29007L12.0089 7.27068C12.3244 7.63596 12.7914 7.8708 13.3129 7.87683L13.3303 6.37694ZM13.1439 6.29007C13.1057 6.24587 13.0834 6.18996 13.0834 6.12695H11.5834C11.5834 6.56349 11.7442 6.96436 12.0089 7.27068L13.1439 6.29007ZM12.1764 8.15508C12.64 7.6933 12.8468 7.49481 12.9703 7.41858L12.1825 6.14216C11.8712 6.33425 11.5097 6.70193 11.1178 7.09236L12.1764 8.15508ZM2.91675 6.12695C2.91675 6.18996 2.89441 6.24587 2.85623 6.29007L3.99131 7.27067C4.25594 6.96436 4.41675 6.5635 4.41675 6.12695H2.91675ZM4.88237 7.09236C4.49043 6.70193 4.12892 6.33425 3.8177 6.14216L3.02984 7.41858C3.15333 7.49481 3.3602 7.6933 3.82378 8.15508L4.88237 7.09236ZM2.85623 6.29007C2.80983 6.34377 2.74389 6.37608 2.66988 6.37694L2.68723 7.87683C3.20873 7.8708 3.67574 7.63596 3.99131 7.27067L2.85623 6.29007ZM2.66988 6.37694C2.66883 6.37695 2.66779 6.37695 2.66675 6.37695V7.87695C2.67359 7.87695 2.68042 7.87691 2.68723 7.87683L2.66988 6.37694ZM3.49874 8.30569C3.46561 7.99768 3.44031 7.76138 3.42679 7.57061C3.4128 7.37311 3.41565 7.2732 3.42191 7.22648L1.9352 7.02729C1.90766 7.23284 1.91515 7.45926 1.93054 7.67661C1.94642 7.90069 1.97526 8.16777 2.00735 8.46611L3.49874 8.30569ZM8.58341 3.46029C8.58341 3.68606 8.45531 3.88322 8.26435 3.98064L8.94604 5.3168C9.61955 4.97318 10.0834 4.27156 10.0834 3.46029H8.58341ZM8.26435 3.98064C8.18585 4.02069 8.09673 4.04362 8.00008 4.04362V5.54362C8.33914 5.54362 8.66133 5.46205 8.94604 5.3168L8.26435 3.98064ZM9.62206 4.9119C9.48559 4.66721 9.35867 4.43921 9.24122 4.25127L7.96916 5.04617C8.06247 5.19548 8.16923 5.38649 8.31203 5.64254L9.62206 4.9119ZM8.00008 4.04362C7.90343 4.04362 7.81431 4.02069 7.73581 3.98064L7.05413 5.3168C7.33883 5.46205 7.66102 5.54362 8.00008 5.54362V4.04362ZM7.73581 3.98064C7.54485 3.88322 7.41675 3.68606 7.41675 3.46029H5.91675C5.91675 4.27156 6.38062 4.97318 7.05413 5.3168L7.73581 3.98064ZM7.68813 5.64254C7.83093 5.38649 7.93769 5.19548 8.031 5.04617L6.75894 4.25127C6.6415 4.43921 6.51457 4.66721 6.3781 4.9119L7.68813 5.64254Z" fill="white"/>
<path opacity="0.5" d="M3.33325 11.7939H12.6666" stroke="white" stroke-width="1.5" stroke-linecap="round"/>
</svg>
