<svg width="25" height="25" viewBox="0 0 25 25" fill="none" xmlns="http://www.w3.org/2000/svg">
<path opacity="0.5" fill-rule="evenodd" clip-rule="evenodd" d="M22.5454 12.3457C22.5454 17.8686 18.0683 22.3457 12.5454 22.3457C7.02256 22.3457 2.54541 17.8686 2.54541 12.3457C2.54541 6.82286 7.02256 2.3457 12.5454 2.3457C18.0683 2.3457 22.5454 6.82286 22.5454 12.3457Z" fill="white"/>
<path d="M13.2954 6.3457C13.2954 5.93149 12.9596 5.5957 12.5454 5.5957C12.1312 5.5957 11.7954 5.93149 11.7954 6.3457V6.66244C10.165 6.95437 8.79541 8.17931 8.79541 9.8457C8.79541 11.7629 10.6082 13.0957 12.5454 13.0957C13.9219 13.0957 14.7954 14.0014 14.7954 14.8457C14.7954 15.69 13.9219 16.5957 12.5454 16.5957C11.1689 16.5957 10.2954 15.69 10.2954 14.8457C10.2954 14.4315 9.95962 14.0957 9.54541 14.0957C9.1312 14.0957 8.79541 14.4315 8.79541 14.8457C8.79541 16.5121 10.165 17.737 11.7954 18.029V18.3457C11.7954 18.7599 12.1312 19.0957 12.5454 19.0957C12.9596 19.0957 13.2954 18.7599 13.2954 18.3457V18.029C14.9258 17.737 16.2954 16.5121 16.2954 14.8457C16.2954 12.9285 14.4826 11.5957 12.5454 11.5957C11.1689 11.5957 10.2954 10.69 10.2954 9.8457C10.2954 9.00143 11.1689 8.0957 12.5454 8.0957C13.9219 8.0957 14.7954 9.00143 14.7954 9.8457C14.7954 10.2599 15.1312 10.5957 15.5454 10.5957C15.9596 10.5957 16.2954 10.2599 16.2954 9.8457C16.2954 8.17931 14.9258 6.95437 13.2954 6.66244V6.3457Z" fill="white"/>
</svg>
