<svg width="1440" height="930" viewBox="0 0 1440 930" fill="none" xmlns="http://www.w3.org/2000/svg">
<g opacity="0.07">
<g filter="url(#filter0_f_186_4149)">
<mask id="mask0_186_4149" style="mask-type:alpha" maskUnits="userSpaceOnUse" x="423" y="-598" width="1915" height="1869">
<path d="M673.389 1270.9C622.024 855.084 317.02 -242.941 462.884 -229.098L2056.59 -597.057L2337.77 846.77L673.389 1270.9Z" fill="url(#paint0_linear_186_4149)"/>
</mask>
<g mask="url(#mask0_186_4149)">
<path d="M1164.28 -159.598C1312.72 -178.143 1456.12 -44.8394 1472.8 88.6485C1489.47 222.136 1451.27 404.822 1292.02 424.719C1213.1 434.579 1128.42 535.784 1026.35 481.024C922.453 425.281 921.41 240.508 912.997 173.17C896.32 39.6823 1015.85 -141.054 1164.28 -159.598Z" fill="url(#paint1_linear_186_4149)"/>
<g filter="url(#filter1_f_186_4149)">
<path d="M1163.93 -147.937C1323.12 -167.826 1453.04 -54.0742 1467.38 60.6676C1481.71 175.41 1440.47 333.492 1281.27 353.38C1202.39 363.236 1116.56 454.889 1015.69 409.46C913.018 363.214 915.161 204.01 907.93 146.128C893.594 31.3865 1004.74 -128.048 1163.93 -147.937Z" fill="url(#paint2_linear_186_4149)"/>
</g>
<g filter="url(#filter2_f_186_4149)">
<path d="M1168.76 -148.54C1347.18 -170.832 1494.59 -28.9944 1512.26 112.468C1529.93 253.931 1485.81 447.985 1307.39 470.277C1218.97 481.323 1125.53 606.157 1011.69 548.836C895.792 490.485 894.507 282.545 885.592 211.184C867.918 69.721 990.332 -126.249 1168.76 -148.54Z" fill="url(#paint3_linear_186_4149)"/>
</g>
<g filter="url(#filter3_f_186_4149)">
<path d="M1191.44 -134.36C1416.06 -127.182 1621.46 33.498 1642.14 199.062C1662.83 364.625 1573.38 557.577 1359.4 584.312C1253.36 597.56 1139.59 795.036 1003.3 728.329C864.57 660.424 865.519 430.972 855.085 347.453C834.4 181.89 931.225 -142.675 1191.44 -134.36Z" fill="url(#paint4_linear_186_4149)"/>
</g>
<g filter="url(#filter4_f_186_4149)">
<path d="M1274.03 -76.6279C1504.43 -105.414 1729.44 83.1179 1749.66 244.991C1769.89 406.863 1671.36 596.897 1440.96 625.683C1326.78 639.948 1195.87 719.044 1050.14 655.383C901.805 590.578 905.621 365.881 895.42 284.224C875.196 122.351 1043.63 -47.8422 1274.03 -76.6279Z" fill="url(#paint5_linear_186_4149)"/>
</g>
<g filter="url(#filter5_f_186_4149)">
<path d="M1371.78 -23.2176C1609.88 -52.965 1842.12 139.602 1862.8 305.166C1883.49 470.73 1781.44 665.256 1543.34 695.004C1425.35 709.745 1289.98 790.829 1139.5 725.896C986.309 659.796 990.545 429.934 980.111 346.415C959.426 180.851 1133.68 6.52983 1371.78 -23.2176Z" fill="url(#paint6_linear_186_4149)"/>
</g>
<g filter="url(#filter6_f_186_4149)">
<path d="M1189.41 -27.1675C1397.74 -53.1965 1604.36 142.572 1625.04 308.136C1645.73 473.699 1559.23 666.283 1350.89 692.312C1247.65 705.211 1127.8 764.913 994.838 697.79C859.489 629.462 859.669 400.106 849.235 316.587C828.55 151.024 981.067 -1.13856 1189.41 -27.1675Z" fill="url(#paint7_linear_186_4149)"/>
</g>
</g>
</g>
<g filter="url(#filter7_f_186_4149)">
<path d="M153.707 558.227C43.9637 448.484 43.9637 270.554 153.707 160.811C263.45 51.0677 242.672 249.775 352.415 359.519C462.159 469.262 660.866 448.484 551.123 558.227C441.38 667.97 263.45 667.97 153.707 558.227Z" fill="#FFD601" fill-opacity="0.17"/>
</g>
<g filter="url(#filter8_f_186_4149)">
<g filter="url(#filter9_d_186_4149)">
<circle cx="468.24" cy="291.834" r="342.044" transform="rotate(-180 468.24 291.834)" fill="url(#paint8_linear_186_4149)"/>
</g>
</g>
<g filter="url(#filter10_f_186_4149)">
<ellipse cx="361.062" cy="261.401" rx="61.5283" ry="325.209" transform="rotate(146.725 361.062 261.401)" fill="#FF5C01" fill-opacity="0.4"/>
</g>
<g filter="url(#filter11_f_186_4149)">
<ellipse cx="468.046" cy="376.285" rx="115.5" ry="116" transform="rotate(-180 468.046 376.285)" fill="#FF8101"/>
</g>
<g opacity="0.7" filter="url(#filter12_f_186_4149)">
<path d="M373.546 375.784C373.546 323.593 416.054 281.284 468.491 281.284C520.927 281.284 491.097 323.593 491.096 375.784C491.096 427.975 520.927 470.284 468.491 470.284C416.054 470.284 373.546 427.975 373.546 375.784Z" fill="white"/>
</g>
<g opacity="0.7" filter="url(#filter13_f_186_4149)">
<path d="M399.546 376.284C399.546 345.909 424.174 321.284 454.554 321.284C484.934 321.284 467.651 345.909 467.651 376.284C467.651 406.66 484.934 431.284 454.554 431.284C424.174 431.284 399.546 406.66 399.546 376.284Z" fill="white"/>
</g>
<g filter="url(#filter14_f_186_4149)">
<path d="M418.546 240.422C418.546 101.322 442.866 -11.4406 472.866 -11.4406C1285.2 -500.351 527.186 101.322 527.186 240.422C527.186 379.522 502.866 492.285 472.866 492.285C442.866 492.285 418.546 379.522 418.546 240.422Z" fill="url(#paint9_linear_186_4149)"/>
</g>
<g opacity="0.07">
<path d="M482.549 633.936L482.549 -269.064" stroke="white" stroke-width="2"/>
<path d="M661.119 633.936L661.119 -269.064" stroke="white" stroke-width="2"/>
<path d="M840.692 633.936L840.692 -269.064" stroke="white" stroke-width="2"/>
<path d="M1019.26 633.936L1019.26 -269.064" stroke="white" stroke-width="2"/>
<path d="M1198.84 633.936L1198.84 -269.064" stroke="white" stroke-width="2"/>
<path d="M1377.41 633.936L1377.41 -269.064" stroke="white" stroke-width="2"/>
</g>
</g>
<defs>
<filter id="filter0_f_186_4149" x="795.356" y="-213.333" width="1122.05" height="1016.09" filterUnits="userSpaceOnUse" color-interpolation-filters="sRGB">
<feFlood flood-opacity="0" result="BackgroundImageFix"/>
<feBlend mode="normal" in="SourceGraphic" in2="BackgroundImageFix" result="shape"/>
<feGaussianBlur stdDeviation="26" result="effect1_foregroundBlur_186_4149"/>
</filter>
<filter id="filter1_f_186_4149" x="904.868" y="-152.034" width="566.982" height="575.874" filterUnits="userSpaceOnUse" color-interpolation-filters="sRGB">
<feFlood flood-opacity="0" result="BackgroundImageFix"/>
<feBlend mode="normal" in="SourceGraphic" in2="BackgroundImageFix" result="shape"/>
<feGaussianBlur stdDeviation="0.909363" result="effect1_foregroundBlur_186_4149"/>
</filter>
<filter id="filter2_f_186_4149" x="877.532" y="-157.231" width="644.695" height="727.417" filterUnits="userSpaceOnUse" color-interpolation-filters="sRGB">
<feFlood flood-opacity="0" result="BackgroundImageFix"/>
<feBlend mode="normal" in="SourceGraphic" in2="BackgroundImageFix" result="shape"/>
<feGaussianBlur stdDeviation="3.18277" result="effect1_foregroundBlur_186_4149"/>
</filter>
<filter id="filter3_f_186_4149" x="843.291" y="-143.61" width="810.845" height="894.756" filterUnits="userSpaceOnUse" color-interpolation-filters="sRGB">
<feFlood flood-opacity="0" result="BackgroundImageFix"/>
<feBlend mode="normal" in="SourceGraphic" in2="BackgroundImageFix" result="shape"/>
<feGaussianBlur stdDeviation="4.54682" result="effect1_foregroundBlur_186_4149"/>
</filter>
<filter id="filter4_f_186_4149" x="869.221" y="-104.115" width="907.569" height="808.507" filterUnits="userSpaceOnUse" color-interpolation-filters="sRGB">
<feFlood flood-opacity="0" result="BackgroundImageFix"/>
<feBlend mode="normal" in="SourceGraphic" in2="BackgroundImageFix" result="shape"/>
<feGaussianBlur stdDeviation="12.2764" result="effect1_foregroundBlur_186_4149"/>
</filter>
<filter id="filter5_f_186_4149" x="917.517" y="-87.2096" width="1008.82" height="898.896" filterUnits="userSpaceOnUse" color-interpolation-filters="sRGB">
<feFlood flood-opacity="0" result="BackgroundImageFix"/>
<feBlend mode="normal" in="SourceGraphic" in2="BackgroundImageFix" result="shape"/>
<feGaussianBlur stdDeviation="30.4637" result="effect1_foregroundBlur_186_4149"/>
</filter>
<filter id="filter6_f_186_4149" x="819.166" y="-57.702" width="837.049" height="814.999" filterUnits="userSpaceOnUse" color-interpolation-filters="sRGB">
<feFlood flood-opacity="0" result="BackgroundImageFix"/>
<feBlend mode="normal" in="SourceGraphic" in2="BackgroundImageFix" result="shape"/>
<feGaussianBlur stdDeviation="14.0951" result="effect1_foregroundBlur_186_4149"/>
</filter>
<filter id="filter7_f_186_4149" x="-135.314" y="-77.9309" width="925.179" height="925.179" filterUnits="userSpaceOnUse" color-interpolation-filters="sRGB">
<feFlood flood-opacity="0" result="BackgroundImageFix"/>
<feBlend mode="normal" in="SourceGraphic" in2="BackgroundImageFix" result="shape"/>
<feGaussianBlur stdDeviation="103.357" result="effect1_foregroundBlur_186_4149"/>
</filter>
<filter id="filter8_f_186_4149" x="-343.609" y="-1112.8" width="2583.01" height="2216.49" filterUnits="userSpaceOnUse" color-interpolation-filters="sRGB">
<feFlood flood-opacity="0" result="BackgroundImageFix"/>
<feBlend mode="normal" in="SourceGraphic" in2="BackgroundImageFix" result="shape"/>
<feGaussianBlur stdDeviation="234.902" result="effect1_foregroundBlur_186_4149"/>
</filter>
<filter id="filter9_d_186_4149" x="121.498" y="-50.21" width="693.485" height="693.485" filterUnits="userSpaceOnUse" color-interpolation-filters="sRGB">
<feFlood flood-opacity="0" result="BackgroundImageFix"/>
<feColorMatrix in="SourceAlpha" type="matrix" values="0 0 0 0 0 0 0 0 0 0 0 0 0 0 0 0 0 0 127 0" result="hardAlpha"/>
<feOffset dy="4.69805"/>
<feGaussianBlur stdDeviation="2.34902"/>
<feComposite in2="hardAlpha" operator="out"/>
<feColorMatrix type="matrix" values="0 0 0 0 0 0 0 0 0 0 0 0 0 0 0 0 0 0 0.25 0"/>
<feBlend mode="normal" in2="BackgroundImageFix" result="effect1_dropShadow_186_4149"/>
<feBlend mode="normal" in="SourceGraphic" in2="effect1_dropShadow_186_4149" result="shape"/>
</filter>
<filter id="filter10_f_186_4149" x="-59.5835" y="-247.508" width="841.291" height="1017.82" filterUnits="userSpaceOnUse" color-interpolation-filters="sRGB">
<feFlood flood-opacity="0" result="BackgroundImageFix"/>
<feBlend mode="normal" in="SourceGraphic" in2="BackgroundImageFix" result="shape"/>
<feGaussianBlur stdDeviation="117.451" result="effect1_foregroundBlur_186_4149"/>
</filter>
<filter id="filter11_f_186_4149" x="145.832" y="53.5711" width="644.428" height="645.428" filterUnits="userSpaceOnUse" color-interpolation-filters="sRGB">
<feFlood flood-opacity="0" result="BackgroundImageFix"/>
<feBlend mode="normal" in="SourceGraphic" in2="BackgroundImageFix" result="shape"/>
<feGaussianBlur stdDeviation="103.357" result="effect1_foregroundBlur_186_4149"/>
</filter>
<filter id="filter12_f_186_4149" x="301.546" y="209.284" width="270" height="333" filterUnits="userSpaceOnUse" color-interpolation-filters="sRGB">
<feFlood flood-opacity="0" result="BackgroundImageFix"/>
<feBlend mode="normal" in="SourceGraphic" in2="BackgroundImageFix" result="shape"/>
<feGaussianBlur stdDeviation="36" result="effect1_foregroundBlur_186_4149"/>
</filter>
<filter id="filter13_f_186_4149" x="359.546" y="281.284" width="153" height="190" filterUnits="userSpaceOnUse" color-interpolation-filters="sRGB">
<feFlood flood-opacity="0" result="BackgroundImageFix"/>
<feBlend mode="normal" in="SourceGraphic" in2="BackgroundImageFix" result="shape"/>
<feGaussianBlur stdDeviation="20" result="effect1_foregroundBlur_186_4149"/>
</filter>
<filter id="filter14_f_186_4149" x="277.604" y="-340.656" width="711.883" height="973.883" filterUnits="userSpaceOnUse" color-interpolation-filters="sRGB">
<feFlood flood-opacity="0" result="BackgroundImageFix"/>
<feBlend mode="normal" in="SourceGraphic" in2="BackgroundImageFix" result="shape"/>
<feGaussianBlur stdDeviation="70.4707" result="effect1_foregroundBlur_186_4149"/>
</filter>
<linearGradient id="paint0_linear_186_4149" x1="1164.07" y1="-138.232" x2="1274.96" y2="543.143" gradientUnits="userSpaceOnUse">
<stop stop-color="#C4C4C4"/>
<stop offset="1" stop-color="#C4C4C4" stop-opacity="0"/>
</linearGradient>
<linearGradient id="paint1_linear_186_4149" x1="913.684" y1="195.904" x2="1477.4" y2="125.476" gradientUnits="userSpaceOnUse">
<stop stop-color="#FF530D"/>
<stop offset="0.59375" stop-color="#FF8301"/>
</linearGradient>
<linearGradient id="paint2_linear_186_4149" x1="908.003" y1="163.951" x2="1471.49" y2="93.552" gradientUnits="userSpaceOnUse">
<stop stop-color="#FF530D"/>
<stop offset="0.59375" stop-color="#FF8301"/>
</linearGradient>
<linearGradient id="paint3_linear_186_4149" x1="886.461" y1="237.461" x2="1518.02" y2="158.557" gradientUnits="userSpaceOnUse">
<stop stop-color="#FF530D"/>
<stop offset="0.59375" stop-color="#FF8301"/>
</linearGradient>
<linearGradient id="paint4_linear_186_4149" x1="850.874" y1="336.916" x2="1646.94" y2="237.459" gradientUnits="userSpaceOnUse">
<stop stop-color="#FF530D"/>
<stop offset="0.59375" stop-color="#FF8301"/>
</linearGradient>
<linearGradient id="paint5_linear_186_4149" x1="899.673" y1="343.215" x2="1748.68" y2="237.143" gradientUnits="userSpaceOnUse">
<stop stop-color="#FF530D"/>
<stop offset="0.59375" stop-color="#FF8301"/>
</linearGradient>
<linearGradient id="paint6_linear_186_4149" x1="984.429" y1="406.755" x2="1861.8" y2="297.14" gradientUnits="userSpaceOnUse">
<stop stop-color="#FF530D"/>
<stop offset="0.59375" stop-color="#FF8301"/>
</linearGradient>
<linearGradient id="paint7_linear_186_4149" x1="855.63" y1="390.327" x2="1623.33" y2="294.414" gradientUnits="userSpaceOnUse">
<stop stop-color="#FF530D"/>
<stop offset="0.59375" stop-color="#FF8301"/>
</linearGradient>
<linearGradient id="paint8_linear_186_4149" x1="410.262" y1="-334.276" x2="1094.35" y2="349.813" gradientUnits="userSpaceOnUse">
<stop stop-color="#FF8C00"/>
<stop offset="0.5" stop-color="#FF7801"/>
<stop offset="1" stop-color="#FF3915"/>
</linearGradient>
<linearGradient id="paint9_linear_186_4149" x1="633.546" y1="492.285" x2="633.546" y2="-199.715" gradientUnits="userSpaceOnUse">
<stop stop-color="#FF570B"/>
<stop offset="1" stop-color="#FF8500"/>
</linearGradient>
</defs>
</svg>
