<svg width="15" height="15" viewBox="0 0 15 15" fill="none" xmlns="http://www.w3.org/2000/svg">
<path d="M3.44066 7.13097L3.97099 7.6613L3.44066 7.13097ZM1.875 9.34515H1.125H1.875ZM5.65485 13.125V13.875V13.125ZM7.13097 3.44066L6.60064 2.91033L7.13097 3.44066ZM11.029 7.3387L7.3387 11.029L8.39936 12.0897L12.0897 8.39936L11.029 7.3387ZM3.97099 7.6613L7.6613 3.97099L6.60064 2.91033L2.91033 6.60064L3.97099 7.6613ZM3.97099 11.029C3.43411 10.4921 3.08593 10.1417 2.86268 9.84909C2.65264 9.57379 2.625 9.43949 2.625 9.34515H1.125C1.125 9.89933 1.3583 10.3502 1.67015 10.759C1.96879 11.1504 2.40344 11.5828 2.91033 12.0897L3.97099 11.029ZM2.91033 6.60064C2.40344 7.10754 1.96879 7.53993 1.67015 7.93135C1.3583 8.34007 1.125 8.79098 1.125 9.34515H2.625C2.625 9.25081 2.65264 9.11651 2.86268 8.84122C3.08593 8.54862 3.43411 8.19818 3.97099 7.6613L2.91033 6.60064ZM7.3387 11.029C6.80182 11.5659 6.45138 11.9141 6.15878 12.1373C5.88349 12.3474 5.74919 12.375 5.65485 12.375V13.875C6.20902 13.875 6.65993 13.6417 7.06865 13.3299C7.46007 13.0312 7.89247 12.5966 8.39936 12.0897L7.3387 11.029ZM2.91033 12.0897C3.41723 12.5966 3.84963 13.0312 4.24104 13.3299C4.64976 13.6417 5.10067 13.875 5.65485 13.875V12.375C5.56051 12.375 5.42621 12.3474 5.15091 12.1373C4.85831 11.9141 4.50787 11.5659 3.97099 11.029L2.91033 12.0897ZM11.029 3.97099C11.5659 4.50787 11.9141 4.85831 12.1373 5.15091C12.3474 5.42621 12.375 5.56051 12.375 5.65485H13.875C13.875 5.10067 13.6417 4.64976 13.3299 4.24104C13.0312 3.84963 12.5966 3.41723 12.0897 2.91033L11.029 3.97099ZM12.0897 8.39936C12.5966 7.89247 13.0312 7.46007 13.3299 7.06865C13.6417 6.65993 13.875 6.20902 13.875 5.65485H12.375C12.375 5.74919 12.3474 5.88349 12.1373 6.15878C11.9141 6.45138 11.5659 6.80182 11.029 7.3387L12.0897 8.39936ZM12.0897 2.91033C11.5828 2.40344 11.1504 1.96879 10.759 1.67015C10.3502 1.3583 9.89933 1.125 9.34515 1.125V2.625C9.43949 2.625 9.57379 2.65264 9.84909 2.86268C10.1417 3.08593 10.4921 3.43411 11.029 3.97099L12.0897 2.91033ZM7.6613 3.97099C8.19818 3.43411 8.54862 3.08593 8.84122 2.86268C9.11651 2.65264 9.25081 2.625 9.34515 2.625V1.125C8.79098 1.125 8.34007 1.3583 7.93135 1.67015C7.53993 1.96879 7.10754 2.40344 6.60064 2.91033L7.6613 3.97099Z" fill="white"/>
<path opacity="0.5" d="M8.07675 11.3513C8.36964 11.6442 8.84451 11.6442 9.13741 11.3513C9.4303 11.0584 9.4303 10.5835 9.13741 10.2906L8.07675 11.3513ZM4.70904 5.86225C4.41615 5.56935 3.94127 5.56935 3.64838 5.86225C3.35549 6.15514 3.35549 6.63002 3.64838 6.92291L4.70904 5.86225ZM9.13741 10.2906L4.70904 5.86225L3.64838 6.92291L8.07675 11.3513L9.13741 10.2906Z" fill="white"/>
<path opacity="0.5" d="M5.625 13.125H13.125" stroke="white" stroke-width="1.5" stroke-linecap="round"/>
</svg>
