<svg width="22" height="22" viewBox="0 0 22 22" fill="none" xmlns="http://www.w3.org/2000/svg">
<path d="M21.7826 11.2532C21.7826 10.5055 21.7219 9.75369 21.5926 9.01807H11.217V13.254H17.1586C16.9121 14.6201 16.1199 15.8286 14.9598 16.5966V19.3451H18.5046C20.5862 17.4292 21.7826 14.5999 21.7826 11.2532Z" fill="white"/>
<path d="M11.2176 22.0001C14.1843 22.0001 16.6862 21.026 18.5091 19.3445L14.9644 16.5961C13.9782 17.267 12.705 17.647 11.2216 17.647C8.35187 17.647 5.91865 15.7109 5.0456 13.1079H1.3877V15.9413C3.25505 19.6558 7.05847 22.0001 11.2176 22.0001Z" fill="white"/>
<path d="M5.04152 13.1085C4.58075 11.7423 4.58075 10.263 5.04152 8.89684V6.06348H1.38766C-0.172513 9.17169 -0.172513 12.8336 1.38766 15.9418L5.04152 13.1085Z" fill="white"/>
<path d="M11.2176 4.35386C12.7858 4.3296 14.3015 4.91972 15.4373 6.00295L18.5778 2.8624C16.5892 0.995046 13.9499 -0.0315938 11.2176 0.000741277C7.05847 0.000741277 3.25505 2.34504 1.3877 6.06357L5.04156 8.89694C5.91057 6.28992 8.34783 4.35386 11.2176 4.35386Z" fill="white"/>
</svg>
