<svg width="163" height="25" viewBox="0 0 163 25" fill="none" xmlns="http://www.w3.org/2000/svg">
<path d="M48.3731 3.65918C51.6013 4.04253 54.1031 6.10049 54.1031 10.3577C54.1031 14.6148 51.5609 17.0359 48.3327 17.4193C47.6266 17.5 47.3038 17.5 46.5572 17.5H41.7957V3.57848H46.5976C47.3441 3.57848 47.6669 3.57848 48.3731 3.65918ZM47.7073 15.2403C49.7854 14.978 51.1574 13.2428 51.1574 10.398C51.1574 7.65405 49.8258 6.10049 47.7678 5.8382C47.3038 5.77768 46.9002 5.7575 46.2748 5.7575H44.58V15.3008H46.2344C46.8397 15.3008 47.2634 15.3008 47.7073 15.2403ZM65.8142 11.9112C65.8142 12.1735 65.8142 12.4963 65.7739 12.8595H58.1473C58.3289 15.1192 59.3377 15.8254 60.629 15.8254C61.8194 15.8254 62.6869 15.1596 62.8685 14.0095H65.6528C65.1081 16.5114 63.0905 17.7825 60.5684 17.7825C57.6227 17.7825 55.3428 15.9464 55.3428 12.1735C55.3428 8.8848 57.5017 6.48384 60.7904 6.48384C64.0791 6.48384 65.8142 8.98568 65.8142 11.9112ZM60.6693 8.44092C59.3781 8.44092 58.4701 9.26814 58.228 11.0436H62.9492C62.7676 9.34885 62.001 8.44092 60.6693 8.44092ZM77.5189 11.9112C77.5189 12.1735 77.5189 12.4963 77.4786 12.8595H69.852C70.0336 15.1192 71.0424 15.8254 72.3336 15.8254C73.524 15.8254 74.3916 15.1596 74.5732 14.0095H77.3575C76.8127 16.5114 74.7951 17.7825 72.2731 17.7825C69.3274 17.7825 67.0475 15.9464 67.0475 12.1735C67.0475 8.8848 69.2063 6.48384 72.4951 6.48384C75.7838 6.48384 77.5189 8.98568 77.5189 11.9112ZM72.374 8.44092C71.0827 8.44092 70.1748 9.26814 69.9327 11.0436H74.6539C74.4723 9.34885 73.7056 8.44092 72.374 8.44092ZM85.8542 6.48384C88.8604 6.48384 90.6359 8.76374 90.6359 11.9314C90.6359 15.8052 88.2551 17.7825 85.491 17.7825C84.6032 17.7825 83.5137 17.5605 82.969 17.1772L82.2628 16.0675V21.4545H79.4785V6.76631H82.2628V8.40057L83.0699 7.23036C83.6751 6.74613 84.7647 6.48384 85.8542 6.48384ZM84.9462 15.8254C86.5603 15.8254 87.7507 14.5946 87.7507 12.113C87.7507 9.91378 86.7016 8.44092 85.0471 8.44092C83.5137 8.44092 82.2628 9.3892 82.2628 12.0121V12.5165C82.2628 14.9578 83.655 15.8254 84.9462 15.8254ZM102.491 9.49008C102.551 10.0348 102.572 10.5796 102.572 11.4472V17.5H99.7874V11.8305C99.7874 11.3866 99.7874 10.8822 99.747 10.3375C99.6663 9.20762 99.0408 8.44092 97.689 8.44092C96.3372 8.44092 95.2679 9.61114 95.2679 12.5972V17.5H92.4836V6.76631H95.2679V8.50145L96.0951 7.23036C96.8618 6.6856 97.6487 6.48384 98.6777 6.48384C100.958 6.48384 102.269 7.6137 102.491 9.49008ZM114.962 6.76631V17.5H112.177V15.6841L111.35 17.0561C110.563 17.5807 109.797 17.7825 108.768 17.7825C106.548 17.7825 105.217 16.5315 104.975 15.0587C104.894 14.5139 104.874 13.9692 104.874 13.1016V6.76631H107.658V12.5165C107.658 12.8595 107.678 13.4446 107.739 13.9894C107.88 15.099 108.526 15.8052 109.817 15.8052C111.209 15.8052 112.177 14.6552 112.177 12.234V6.76631H114.962ZM127.999 2.67055V17.5H125.214V15.8456L124.407 17.0359C123.802 17.5 122.713 17.7825 121.623 17.7825C118.617 17.7825 116.841 15.5026 116.841 12.3349C116.841 8.44092 119.222 6.48384 121.986 6.48384C122.874 6.48384 123.964 6.70578 124.508 7.08912L125.214 8.19881V2.67055H127.999ZM122.43 15.8254C123.964 15.8254 125.214 14.8771 125.214 12.2542V11.7296C125.214 9.3085 123.822 8.44092 122.531 8.44092C120.917 8.44092 119.727 9.67167 119.727 12.1533C119.727 14.3525 120.776 15.8254 122.43 15.8254ZM140.357 11.9112C140.357 12.1735 140.357 12.4963 140.317 12.8595H132.69C132.872 15.1192 133.881 15.8254 135.172 15.8254C136.362 15.8254 137.23 15.1596 137.412 14.0095H140.196C139.651 16.5114 137.633 17.7825 135.111 17.7825C132.166 17.7825 129.886 15.9464 129.886 12.1735C129.886 8.8848 132.045 6.48384 135.333 6.48384C138.622 6.48384 140.357 8.98568 140.357 11.9112ZM135.212 8.44092C133.921 8.44092 133.013 9.26814 132.771 11.0436H137.492C137.311 9.34885 136.544 8.44092 135.212 8.44092Z" fill="white"/>
<path d="M17.6359 17.9559C17.4763 17.9559 17.3167 17.9559 17.0773 17.9559C13.2469 17.9559 10.0549 14.8015 10.0549 10.8382C10.0549 7.92647 11.8105 5.33823 14.3641 4.28676C14.5237 4.28676 14.6035 4.28676 14.7631 4.28676C18.5935 4.28676 21.7855 7.44116 21.7855 11.4044C21.7855 14.3162 20.1097 16.8235 17.6359 17.9559L32 17.875C32 8.00734 24.0998 -3.45331e-07 14.3641 -7.7089e-07L14.3641 4.12498L1.14464e-06 4.12498C7.1331e-07 13.9926 7.90025 22 17.6359 22L17.6359 17.9559Z" fill="url(#paint0_linear_75_1404)"/>
<defs>
<linearGradient id="paint0_linear_75_1404" x1="45.2879" y1="9.13545" x2="24.7468" y2="39.0134" gradientUnits="userSpaceOnUse">
<stop stop-color="#FF8C00"/>
<stop offset="0.5" stop-color="#FF7801"/>
<stop offset="1" stop-color="#FF3915"/>
</linearGradient>
</defs>
</svg>
