<svg width="1920" height="1080" viewBox="0 0 1920 1080" fill="none" xmlns="http://www.w3.org/2000/svg">
<g opacity="0.15">
<g filter="url(#filter0_f_75_1341)">
<mask id="mask0_75_1341" style="mask-type:alpha" maskUnits="userSpaceOnUse" x="-341" y="-382" width="1915" height="1868">
<path d="M1323.98 -381.966C1375.34 33.8518 1680.35 1131.88 1534.48 1118.03L-59.2241 1485.99L-340.405 42.1656L1323.98 -381.966Z" fill="url(#paint0_linear_75_1341)"/>
</mask>
<g mask="url(#mask0_75_1341)">
<path d="M993.083 1048.53C844.649 1067.08 701.248 933.774 684.57 800.287C667.893 666.799 706.093 484.113 865.35 464.216C944.27 454.356 1028.94 353.151 1131.01 407.911C1234.91 463.654 1235.96 648.427 1244.37 715.765C1261.05 849.253 1141.52 1029.99 993.083 1048.53Z" fill="url(#paint1_linear_75_1341)"/>
<g filter="url(#filter1_f_75_1341)">
<path d="M993.435 1036.87C834.243 1056.76 704.324 943.009 689.988 828.267C675.653 713.525 716.902 555.443 876.094 535.555C954.981 525.699 1040.81 434.046 1141.67 479.475C1244.35 525.721 1242.21 684.925 1249.44 742.806C1263.77 857.548 1152.63 1016.98 993.435 1036.87Z" fill="url(#paint2_linear_75_1341)"/>
</g>
<g filter="url(#filter2_f_75_1341)">
<path d="M948.612 1037.48C770.189 1059.77 622.782 917.93 605.108 776.467C587.434 635.005 631.558 440.95 809.982 418.658C898.399 407.612 991.834 282.778 1105.68 340.099C1221.58 398.45 1222.86 606.391 1231.78 677.752C1249.45 819.214 1127.04 1015.18 948.612 1037.48Z" fill="url(#paint3_linear_75_1341)"/>
</g>
<g filter="url(#filter3_f_75_1341)">
<path d="M885.929 1023.3C661.306 1016.12 455.912 855.438 435.227 689.874C414.542 524.31 503.989 331.358 717.972 304.624C824.011 291.376 937.782 93.8991 1074.07 160.606C1212.8 228.512 1211.85 457.964 1222.28 541.482C1242.97 707.046 1146.14 1031.61 885.929 1023.3Z" fill="url(#paint4_linear_75_1341)"/>
</g>
<g filter="url(#filter4_f_75_1341)">
<path d="M763.336 965.563C532.932 994.349 307.929 805.817 287.706 643.945C267.482 482.072 366.007 292.038 596.411 263.252C710.587 248.987 841.5 169.891 987.222 233.552C1135.56 298.357 1131.75 523.054 1141.95 604.711C1162.17 766.584 993.74 936.777 763.336 965.563Z" fill="url(#paint5_linear_75_1341)"/>
</g>
<g filter="url(#filter5_f_75_1341)">
<path d="M625.587 912.153C387.486 941.9 155.249 749.333 134.564 583.769C113.879 418.206 215.928 223.679 454.029 193.932C572.019 179.19 707.388 98.1065 857.871 163.04C1011.06 229.139 1006.82 459.002 1017.26 542.52C1037.94 708.084 863.688 882.405 625.587 912.153Z" fill="url(#paint6_linear_75_1341)"/>
</g>
<g filter="url(#filter6_f_75_1341)">
<path d="M887.961 916.103C679.623 942.132 473.008 746.363 452.323 580.8C431.638 415.236 518.136 222.652 726.474 196.623C829.716 183.725 949.569 124.023 1082.53 191.145C1217.88 259.474 1217.7 488.829 1228.13 572.348C1248.82 737.912 1096.3 890.074 887.961 916.103Z" fill="url(#paint7_linear_75_1341)"/>
</g>
</g>
</g>
<g filter="url(#filter7_f_75_1341)">
<path d="M2283.66 330.708C2393.4 440.451 2393.4 618.381 2283.66 728.124C2173.92 837.867 2194.7 639.16 2084.95 529.416C1975.21 419.673 1776.5 440.451 1886.24 330.708C1995.99 220.965 2173.92 220.965 2283.66 330.708Z" fill="#FFD601" fill-opacity="0.17"/>
</g>
<g filter="url(#filter8_f_75_1341)">
<g filter="url(#filter9_d_75_1341)">
<circle cx="1929.13" cy="597.101" r="342.044" fill="url(#paint8_linear_75_1341)"/>
</g>
<circle cx="548.948" cy="1250.76" r="281.178" fill="#FF7801" fill-opacity="0.5"/>
</g>
<g filter="url(#filter10_f_75_1341)">
<ellipse cx="2076.31" cy="627.535" rx="61.5283" ry="325.209" transform="rotate(-33.275 2076.31 627.535)" fill="#FF5C01" fill-opacity="0.4"/>
</g>
<g filter="url(#filter11_f_75_1341)">
<ellipse cx="1969.32" cy="512.651" rx="115.5" ry="116" fill="#FF8101"/>
</g>
<g opacity="0.7" filter="url(#filter12_f_75_1341)">
<path d="M2103.82 513.151C2103.82 565.342 2061.31 607.651 2008.88 607.651C1956.44 607.651 1986.27 565.342 1986.27 513.151C1986.27 460.96 1956.44 418.651 2008.88 418.651C2061.31 418.651 2103.82 460.96 2103.82 513.151Z" fill="white"/>
</g>
<g filter="url(#filter13_f_75_1341)">
<path d="M1938.82 648.514C1938.82 787.614 1914.5 900.376 1884.5 900.376C1072.17 1389.29 1830.18 787.614 1830.18 648.514C1830.18 509.413 1854.5 396.651 1884.5 396.651C1914.5 396.651 1938.82 509.413 1938.82 648.514Z" fill="url(#paint9_linear_75_1341)"/>
</g>
<g opacity="0.07">
<path d="M1776.25 255V1158" stroke="white" stroke-width="2"/>
<path d="M1516.68 255V1158" stroke="white" stroke-width="2"/>
<path d="M1298.1 255V1158" stroke="white" stroke-width="2"/>
<path d="M1038.53 255V1158" stroke="white" stroke-width="2"/>
<path d="M819.962 255V1158" stroke="white" stroke-width="2"/>
<path d="M560.388 255V1158" stroke="white" stroke-width="2"/>
</g>
</g>
<defs>
<filter id="filter0_f_75_1341" x="79.9573" y="86.177" width="1222.72" height="1016.09" filterUnits="userSpaceOnUse" color-interpolation-filters="sRGB">
<feFlood flood-opacity="0" result="BackgroundImageFix"/>
<feBlend mode="normal" in="SourceGraphic" in2="BackgroundImageFix" result="shape"/>
<feGaussianBlur stdDeviation="26" result="effect1_foregroundBlur_75_1341"/>
</filter>
<filter id="filter1_f_75_1341" x="685.517" y="465.094" width="566.982" height="575.874" filterUnits="userSpaceOnUse" color-interpolation-filters="sRGB">
<feFlood flood-opacity="0" result="BackgroundImageFix"/>
<feBlend mode="normal" in="SourceGraphic" in2="BackgroundImageFix" result="shape"/>
<feGaussianBlur stdDeviation="0.909363" result="effect1_foregroundBlur_75_1341"/>
</filter>
<filter id="filter2_f_75_1341" x="595.141" y="318.749" width="644.694" height="727.417" filterUnits="userSpaceOnUse" color-interpolation-filters="sRGB">
<feFlood flood-opacity="0" result="BackgroundImageFix"/>
<feBlend mode="normal" in="SourceGraphic" in2="BackgroundImageFix" result="shape"/>
<feGaussianBlur stdDeviation="3.18277" result="effect1_foregroundBlur_75_1341"/>
</filter>
<filter id="filter3_f_75_1341" x="423.232" y="137.791" width="810.845" height="894.755" filterUnits="userSpaceOnUse" color-interpolation-filters="sRGB">
<feFlood flood-opacity="0" result="BackgroundImageFix"/>
<feBlend mode="normal" in="SourceGraphic" in2="BackgroundImageFix" result="shape"/>
<feGaussianBlur stdDeviation="4.54682" result="effect1_foregroundBlur_75_1341"/>
</filter>
<filter id="filter4_f_75_1341" x="260.578" y="184.543" width="907.569" height="808.507" filterUnits="userSpaceOnUse" color-interpolation-filters="sRGB">
<feFlood flood-opacity="0" result="BackgroundImageFix"/>
<feBlend mode="normal" in="SourceGraphic" in2="BackgroundImageFix" result="shape"/>
<feGaussianBlur stdDeviation="12.2764" result="effect1_foregroundBlur_75_1341"/>
</filter>
<filter id="filter5_f_75_1341" x="71.0299" y="77.2496" width="1008.82" height="898.895" filterUnits="userSpaceOnUse" color-interpolation-filters="sRGB">
<feFlood flood-opacity="0" result="BackgroundImageFix"/>
<feBlend mode="normal" in="SourceGraphic" in2="BackgroundImageFix" result="shape"/>
<feGaussianBlur stdDeviation="30.4637" result="effect1_foregroundBlur_75_1341"/>
</filter>
<filter id="filter6_f_75_1341" x="421.152" y="131.638" width="837.049" height="814.999" filterUnits="userSpaceOnUse" color-interpolation-filters="sRGB">
<feFlood flood-opacity="0" result="BackgroundImageFix"/>
<feBlend mode="normal" in="SourceGraphic" in2="BackgroundImageFix" result="shape"/>
<feGaussianBlur stdDeviation="14.0951" result="effect1_foregroundBlur_75_1341"/>
</filter>
<filter id="filter7_f_75_1341" x="1647.5" y="41.6865" width="925.18" height="925.179" filterUnits="userSpaceOnUse" color-interpolation-filters="sRGB">
<feFlood flood-opacity="0" result="BackgroundImageFix"/>
<feBlend mode="normal" in="SourceGraphic" in2="BackgroundImageFix" result="shape"/>
<feGaussianBlur stdDeviation="103.357" result="effect1_foregroundBlur_75_1341"/>
</filter>
<filter id="filter8_f_75_1341" x="-202.034" y="-214.748" width="2943.01" height="2216.49" filterUnits="userSpaceOnUse" color-interpolation-filters="sRGB">
<feFlood flood-opacity="0" result="BackgroundImageFix"/>
<feBlend mode="normal" in="SourceGraphic" in2="BackgroundImageFix" result="shape"/>
<feGaussianBlur stdDeviation="234.902" result="effect1_foregroundBlur_75_1341"/>
</filter>
<filter id="filter9_d_75_1341" x="1582.38" y="255.057" width="693.485" height="693.485" filterUnits="userSpaceOnUse" color-interpolation-filters="sRGB">
<feFlood flood-opacity="0" result="BackgroundImageFix"/>
<feColorMatrix in="SourceAlpha" type="matrix" values="0 0 0 0 0 0 0 0 0 0 0 0 0 0 0 0 0 0 127 0" result="hardAlpha"/>
<feOffset dy="4.69805"/>
<feGaussianBlur stdDeviation="2.34902"/>
<feComposite in2="hardAlpha" operator="out"/>
<feColorMatrix type="matrix" values="0 0 0 0 0 0 0 0 0 0 0 0 0 0 0 0 0 0 0.25 0"/>
<feBlend mode="normal" in2="BackgroundImageFix" result="effect1_dropShadow_75_1341"/>
<feBlend mode="normal" in="SourceGraphic" in2="effect1_dropShadow_75_1341" result="shape"/>
</filter>
<filter id="filter10_f_75_1341" x="1655.66" y="118.626" width="841.291" height="1017.82" filterUnits="userSpaceOnUse" color-interpolation-filters="sRGB">
<feFlood flood-opacity="0" result="BackgroundImageFix"/>
<feBlend mode="normal" in="SourceGraphic" in2="BackgroundImageFix" result="shape"/>
<feGaussianBlur stdDeviation="117.451" result="effect1_foregroundBlur_75_1341"/>
</filter>
<filter id="filter11_f_75_1341" x="1647.11" y="189.937" width="644.428" height="645.428" filterUnits="userSpaceOnUse" color-interpolation-filters="sRGB">
<feFlood flood-opacity="0" result="BackgroundImageFix"/>
<feBlend mode="normal" in="SourceGraphic" in2="BackgroundImageFix" result="shape"/>
<feGaussianBlur stdDeviation="103.357" result="effect1_foregroundBlur_75_1341"/>
</filter>
<filter id="filter12_f_75_1341" x="1905.82" y="346.651" width="270" height="333" filterUnits="userSpaceOnUse" color-interpolation-filters="sRGB">
<feFlood flood-opacity="0" result="BackgroundImageFix"/>
<feBlend mode="normal" in="SourceGraphic" in2="BackgroundImageFix" result="shape"/>
<feGaussianBlur stdDeviation="36" result="effect1_foregroundBlur_75_1341"/>
</filter>
<filter id="filter13_f_75_1341" x="1367.88" y="255.709" width="711.883" height="973.883" filterUnits="userSpaceOnUse" color-interpolation-filters="sRGB">
<feFlood flood-opacity="0" result="BackgroundImageFix"/>
<feBlend mode="normal" in="SourceGraphic" in2="BackgroundImageFix" result="shape"/>
<feGaussianBlur stdDeviation="70.4707" result="effect1_foregroundBlur_75_1341"/>
</filter>
<linearGradient id="paint0_linear_75_1341" x1="833.296" y1="1027.17" x2="722.409" y2="345.793" gradientUnits="userSpaceOnUse">
<stop stop-color="#C4C4C4"/>
<stop offset="1" stop-color="#C4C4C4" stop-opacity="0"/>
</linearGradient>
<linearGradient id="paint1_linear_75_1341" x1="1243.68" y1="693.031" x2="679.969" y2="763.459" gradientUnits="userSpaceOnUse">
<stop stop-color="#FF530D"/>
<stop offset="0.59375" stop-color="#FF8301"/>
</linearGradient>
<linearGradient id="paint2_linear_75_1341" x1="1249.36" y1="724.983" x2="685.88" y2="795.383" gradientUnits="userSpaceOnUse">
<stop stop-color="#FF530D"/>
<stop offset="0.59375" stop-color="#FF8301"/>
</linearGradient>
<linearGradient id="paint3_linear_75_1341" x1="1230.91" y1="651.474" x2="599.35" y2="730.378" gradientUnits="userSpaceOnUse">
<stop stop-color="#FF530D"/>
<stop offset="0.59375" stop-color="#FF8301"/>
</linearGradient>
<linearGradient id="paint4_linear_75_1341" x1="1226.49" y1="552.02" x2="430.43" y2="651.477" gradientUnits="userSpaceOnUse">
<stop stop-color="#FF530D"/>
<stop offset="0.59375" stop-color="#FF8301"/>
</linearGradient>
<linearGradient id="paint5_linear_75_1341" x1="1137.69" y1="545.72" x2="288.686" y2="651.792" gradientUnits="userSpaceOnUse">
<stop stop-color="#FF530D"/>
<stop offset="0.59375" stop-color="#FF8301"/>
</linearGradient>
<linearGradient id="paint6_linear_75_1341" x1="1012.94" y1="482.18" x2="135.567" y2="591.796" gradientUnits="userSpaceOnUse">
<stop stop-color="#FF530D"/>
<stop offset="0.59375" stop-color="#FF8301"/>
</linearGradient>
<linearGradient id="paint7_linear_75_1341" x1="1221.74" y1="498.608" x2="454.038" y2="594.522" gradientUnits="userSpaceOnUse">
<stop stop-color="#FF530D"/>
<stop offset="0.59375" stop-color="#FF8301"/>
</linearGradient>
<linearGradient id="paint8_linear_75_1341" x1="1871.15" y1="-29.0093" x2="2555.24" y2="655.08" gradientUnits="userSpaceOnUse">
<stop stop-color="#FF8C00"/>
<stop offset="0.5" stop-color="#FF7801"/>
<stop offset="1" stop-color="#FF3915"/>
</linearGradient>
<linearGradient id="paint9_linear_75_1341" x1="1723.82" y1="396.651" x2="1723.82" y2="1088.65" gradientUnits="userSpaceOnUse">
<stop stop-color="#FF570B"/>
<stop offset="1" stop-color="#FF8500"/>
</linearGradient>
</defs>
</svg>
