<svg width="15" height="15" viewBox="0 0 15 15" fill="none" xmlns="http://www.w3.org/2000/svg">
<g clip-path="url(#clip0_186_4228)">
<path d="M9.55434 1.96986L8.97504 2.54916L3.64926 7.87494C3.28854 8.23566 3.10818 8.41603 2.95306 8.6149C2.77008 8.84949 2.61321 9.10332 2.48521 9.37189C2.37671 9.59957 2.29605 9.84155 2.13473 10.3255L1.45113 12.3763L1.28403 12.8776C1.20464 13.1158 1.26663 13.3783 1.44414 13.5559C1.62166 13.7334 1.88424 13.7954 2.1224 13.716L2.6237 13.5489L4.67449 12.8653C5.15845 12.704 5.40043 12.6233 5.62811 12.5148C5.89668 12.3868 6.15051 12.2299 6.3851 12.0469C6.58397 11.8918 6.76434 11.7115 7.12506 11.3507L12.4508 6.02496L13.0301 5.44566C13.99 4.48584 13.99 2.92968 13.0301 1.96986C12.0703 1.01005 10.5142 1.01005 9.55434 1.96986Z" stroke="white" stroke-width="1.5"/>
<path opacity="0.5" d="M8.97508 2.54883C8.97508 2.54883 9.0475 3.77984 10.1337 4.86603C11.2199 5.95221 12.4509 6.02463 12.4509 6.02463M2.62374 13.5485L1.45117 12.376" stroke="white" stroke-width="1.5"/>
</g>
<defs>
<clipPath id="clip0_186_4228">
<rect width="15" height="15" fill="white"/>
</clipPath>
</defs>
</svg>
