<svg width="16" height="16" viewBox="0 0 16 16" fill="none" xmlns="http://www.w3.org/2000/svg">
<path fill-rule="evenodd" clip-rule="evenodd" d="M9.29001 1.24508C8.54496 0.616223 7.45504 0.616224 6.70999 1.24508L6.03146 1.81779C5.71479 2.08507 5.32292 2.2474 4.91 2.28232L4.02524 2.35714C3.05374 2.4393 2.28305 3.20999 2.20089 4.18149L2.12607 5.06625C2.09115 5.47917 1.92882 5.87104 1.66154 6.18772L1.08883 6.86624C0.459973 7.61129 0.459974 8.70121 1.08883 9.44626L1.66154 10.1248C1.92882 10.4415 2.09115 10.8334 2.12607 11.2463L2.20089 12.1311C2.28305 13.1026 3.05374 13.8733 4.02524 13.9553L4.91 14.0302C5.32292 14.0652 5.71479 14.2275 6.03147 14.4948L6.70999 15.0674C7.45504 15.6962 8.54496 15.6962 9.29001 15.0674L9.96853 14.4948C10.2852 14.2275 10.6771 14.0652 11.09 14.0302L11.9748 13.9553C12.9463 13.8733 13.717 13.1026 13.7991 12.1311L13.8739 11.2463C13.9089 10.8334 14.0712 10.4415 14.3385 10.1248L14.9112 9.44626C15.54 8.70121 15.54 7.61129 14.9112 6.86624L14.3385 6.18771C14.0712 5.87104 13.9089 5.47917 13.8739 5.06625L13.7991 4.18149C13.717 3.20999 12.9463 2.4393 11.9748 2.35714L11.09 2.28232C10.6771 2.2474 10.2852 2.08507 9.96853 1.81779L9.29001 1.24508ZM11.6368 6.79269C11.9883 6.44122 11.9883 5.87137 11.6368 5.5199C11.2854 5.16842 10.7155 5.16842 10.364 5.5199L7.00043 8.8835L5.63683 7.5199C5.28536 7.16842 4.71551 7.16842 4.36404 7.5199C4.01256 7.87137 4.01256 8.44122 4.36404 8.79269L6.36404 10.7927C6.71551 11.1441 7.28536 11.1441 7.63683 10.7927L11.6368 6.79269Z" fill="white"/>
</svg>
