<svg width="150" height="150" viewBox="0 0 150 150" fill="none" xmlns="http://www.w3.org/2000/svg">
<path d="M84.0306 64.827C84.2854 63.821 85.7146 63.821 85.9694 64.827L86.3231 66.2234C87.6046 71.2827 91.7212 75.1285 96.8559 76.0634C97.8978 76.2531 97.8978 77.7469 96.8559 77.9366C91.7212 78.8715 87.6046 82.7173 86.3231 87.7766L85.9694 89.173C85.7146 90.179 84.2854 90.179 84.0306 89.173L83.6769 87.7766C82.3954 82.7173 78.2788 78.8715 73.1441 77.9366C72.1022 77.7469 72.1022 76.2531 73.1441 76.0634C78.2788 75.1285 82.3954 71.2827 83.6769 66.2234L84.0306 64.827Z" fill="url(#paint0_linear_205_2043)"/>
<path opacity="0.5" d="M55.1757 53.7013C55.2567 53.3593 55.7433 53.3593 55.8243 53.7013L56.2373 55.4433C56.6667 57.2546 58.1314 58.6375 59.9644 58.9621L61.1466 59.1714C61.5135 59.2364 61.5135 59.7629 61.1466 59.8279L59.9644 60.0373C58.1314 60.3619 56.6667 61.7447 56.2373 63.556L55.8243 65.2981C55.7433 65.64 55.2567 65.64 55.1757 65.2981L54.7627 63.556C54.3333 61.7447 52.8686 60.3619 51.0356 60.0373L49.8534 59.8279C49.4865 59.7629 49.4865 59.2364 49.8534 59.1714L51.0356 58.9621C52.8686 58.6375 54.3333 57.2546 54.7627 55.4433L55.1757 53.7013Z" fill="url(#paint1_linear_205_2043)"/>
<defs>
<linearGradient id="paint0_linear_205_2043" x1="85" y1="60.4839" x2="85" y2="93.5161" gradientUnits="userSpaceOnUse">
<stop stop-color="#CDFF3D"/>
<stop offset="0.22" stop-color="white"/>
<stop offset="1" stop-color="#FF9900"/>
</linearGradient>
<linearGradient id="paint1_linear_205_2043" x1="55.5" y1="52.333" x2="55.5" y2="66.6663" gradientUnits="userSpaceOnUse">
<stop stop-color="#CDFF3D"/>
<stop offset="0.22" stop-color="white"/>
<stop offset="1" stop-color="#FF9900"/>
</linearGradient>
</defs>
</svg>
