<svg width="150" height="150" viewBox="0 0 150 150" fill="none" xmlns="http://www.w3.org/2000/svg">
<path d="M84.6762 67.9822C84.7595 67.644 85.2404 67.644 85.3236 67.9822L86.432 72.4862C86.8693 74.2633 88.305 75.6207 90.1038 75.9578L93.9184 76.6727C94.281 76.7406 94.281 77.26 93.9184 77.328L90.1038 78.0428C88.305 78.38 86.8693 79.7374 86.432 81.5145L85.3236 86.0184C85.2404 86.3566 84.7595 86.3566 84.6762 86.0184L83.5679 81.5145C83.1305 79.7374 81.6948 78.38 79.896 78.0428L76.0814 77.328C75.7189 77.26 75.7189 76.7406 76.0814 76.6727L79.896 75.9578C81.6948 75.6207 83.1305 74.2633 83.5679 72.4862L84.6762 67.9822Z" fill="url(#paint0_linear_205_2049)"/>
<path d="M54.527 42.1048C54.7701 41.079 56.2299 41.079 56.473 42.1048L57.7119 47.3309C59 52.7648 63.3942 56.9134 68.8931 57.8872L72.4398 58.5153C73.5406 58.7103 73.5406 60.2897 72.4398 60.4847L68.8931 61.1128C63.3942 62.0866 59 66.2352 57.7119 71.6691L56.473 76.8952C56.2299 77.921 54.7701 77.921 54.527 76.8952L53.2881 71.6691C52 66.2352 47.6058 62.0866 42.1069 61.1128L38.5602 60.4847C37.4594 60.2897 37.4594 58.7103 38.5602 58.5153L42.1069 57.8872C47.6058 56.9134 52 52.7648 53.2881 47.3309L54.527 42.1048Z" fill="url(#paint1_linear_205_2049)"/>
<defs>
<linearGradient id="paint0_linear_205_2049" x1="84.9999" y1="66.3337" x2="84.9999" y2="87.667" gradientUnits="userSpaceOnUse">
<stop stop-color="#CDFF3D"/>
<stop offset="0.22" stop-color="white"/>
<stop offset="1" stop-color="#FF9900"/>
</linearGradient>
<linearGradient id="paint1_linear_205_2049" x1="55.5" y1="38" x2="55.5" y2="81" gradientUnits="userSpaceOnUse">
<stop stop-color="#CDFF3D"/>
<stop offset="0.22" stop-color="white"/>
<stop offset="1" stop-color="#FF9900"/>
</linearGradient>
</defs>
</svg>
