<svg width="15" height="16" viewBox="0 0 15 16" fill="none" xmlns="http://www.w3.org/2000/svg">
<path fill-rule="evenodd" clip-rule="evenodd" d="M11.4775 2.19336C11.7364 2.19336 11.9462 2.40323 11.9462 2.66211V5.31376C11.9462 5.57264 11.7364 5.78251 11.4775 5.78251H8.82582C8.56694 5.78251 8.35707 5.57264 8.35707 5.31376C8.35707 5.05488 8.56694 4.84501 8.82582 4.84501H10.3011C8.5227 3.44309 5.93669 3.56251 4.29592 5.20327C2.52636 6.97284 2.52636 9.84187 4.29592 11.6114C6.06549 13.381 8.93451 13.381 10.7041 11.6114C11.8896 10.4259 12.2815 8.74658 11.8774 7.23352C11.8106 6.9834 11.9592 6.72649 12.2094 6.6597C12.4595 6.5929 12.7164 6.74152 12.7832 6.99163C13.27 8.81474 12.7987 10.8426 11.367 12.2743C9.23131 14.41 5.76869 14.41 3.63301 12.2743C1.49733 10.1387 1.49733 6.67604 3.63301 4.54036C5.65302 2.52035 8.86013 2.41095 11.0087 4.21215V2.66211C11.0087 2.40323 11.2186 2.19336 11.4775 2.19336Z" fill="white"/>
</svg>
