<svg width="16" height="14" viewBox="0 0 16 14" fill="none" xmlns="http://www.w3.org/2000/svg">
<path d="M3.93379 8.1604L0.320377 6.91156C0.320377 6.91156 -0.111467 6.72572 0.0275879 6.30428C0.0562127 6.21736 0.113954 6.14344 0.286693 6.01636C1.08733 5.4244 15.1058 0.0796755 15.1058 0.0796755C15.1058 0.0796755 15.5016 -0.0618047 15.7351 0.0322954C15.7928 0.0512594 15.8448 0.0861514 15.8857 0.133411C15.9266 0.180667 15.9549 0.238588 15.9677 0.301252C15.9929 0.411932 16.0034 0.525804 15.999 0.639576C15.9979 0.737996 15.9867 0.82922 15.9782 0.972268C15.8928 2.43352 13.3378 13.3394 13.3378 13.3394C13.3378 13.3394 13.1849 13.9776 12.6372 13.9994C12.5026 14.004 12.3685 13.9799 12.2429 13.9283C12.1173 13.8768 12.0028 13.799 11.9061 13.6995C10.8313 12.7188 7.1165 10.0706 6.29562 9.48816C6.27711 9.4748 6.26149 9.45737 6.24987 9.43705C6.23825 9.41673 6.2309 9.394 6.22823 9.37041C6.21676 9.309 6.2797 9.23296 6.2797 9.23296C6.2797 9.23296 12.7482 3.134 12.9204 2.49372C12.9337 2.44412 12.8833 2.41968 12.8157 2.4414C12.3861 2.60904 4.9384 7.598 4.11642 8.14864C4.05722 8.1676 3.99471 8.17164 3.93379 8.1604Z" fill="white"/>
</svg>
