<svg width="14" height="14" viewBox="0 0 14 14" fill="none" xmlns="http://www.w3.org/2000/svg">
<path d="M2.33341 3.50033C2.97775 3.50033 3.50008 2.97799 3.50008 2.33366C3.50008 1.68933 2.97775 1.16699 2.33341 1.16699C1.68908 1.16699 1.16675 1.68933 1.16675 2.33366C1.16675 2.97799 1.68908 3.50033 2.33341 3.50033Z" fill="white"/>
<path d="M2.33341 12.8337C2.97775 12.8337 3.50008 12.3113 3.50008 11.667C3.50008 11.0227 2.97775 10.5003 2.33341 10.5003C1.68908 10.5003 1.16675 11.0227 1.16675 11.667C1.16675 12.3113 1.68908 12.8337 2.33341 12.8337Z" fill="white"/>
<path d="M12.8334 2.33366C12.8334 2.97799 12.3111 3.50033 11.6667 3.50033C11.0224 3.50033 10.5001 2.97799 10.5001 2.33366C10.5001 1.68933 11.0224 1.16699 11.6667 1.16699C12.3111 1.16699 12.8334 1.68933 12.8334 2.33366Z" fill="white"/>
<path d="M11.6667 12.8337C12.3111 12.8337 12.8334 12.3113 12.8334 11.667C12.8334 11.0227 12.3111 10.5003 11.6667 10.5003C11.0224 10.5003 10.5001 11.0227 10.5001 11.667C10.5001 12.3113 11.0224 12.8337 11.6667 12.8337Z" fill="white"/>
<g opacity="0.5">
<path d="M2.77075 3.41487C2.63565 3.46956 2.48797 3.49967 2.33325 3.49967C2.17854 3.49967 2.03086 3.46956 1.89575 3.41487V10.5845C2.03086 10.5298 2.17854 10.4997 2.33325 10.4997C2.48797 10.4997 2.63565 10.5298 2.77075 10.5845V3.41487Z" fill="white"/>
<path d="M3.41511 2.77051H10.5847C10.53 2.6354 10.4999 2.48772 10.4999 2.33301C10.4999 2.17829 10.53 2.03061 10.5847 1.89551H3.41511C3.4698 2.03061 3.49992 2.17829 3.49992 2.33301C3.49992 2.48772 3.4698 2.6354 3.41511 2.77051Z" fill="white"/>
<path d="M11.2291 3.41487C11.3642 3.46956 11.5119 3.49967 11.6666 3.49967C11.8213 3.49967 11.969 3.46956 12.1041 3.41487V10.5845C11.969 10.5298 11.8213 10.4997 11.6666 10.4997C11.5119 10.4997 11.3642 10.5298 11.2291 10.5845V3.41487Z" fill="white"/>
<path d="M10.5847 11.2288H3.41511C3.4698 11.3639 3.49992 11.5116 3.49992 11.6663C3.49992 11.8211 3.4698 11.9687 3.41511 12.1038H10.5847C10.53 11.9687 10.4999 11.8211 10.4999 11.6663C10.4999 11.5116 10.53 11.3639 10.5847 11.2288Z" fill="white"/>
</g>
<path d="M4.95825 9.04134L6.91048 5.13689C6.94733 5.06319 7.05251 5.06319 7.08936 5.13689L9.04159 9.04134" stroke="white" stroke-linecap="round"/>
<path d="M5.83325 7.58301H8.16659" stroke="white" stroke-linecap="round"/>
</svg>
