<svg width="19" height="14" viewBox="0 0 19 14" fill="none" xmlns="http://www.w3.org/2000/svg">
<path d="M18.5 1.65729C17.8377 1.93836 17.126 2.12835 16.3789 2.21381C17.1415 1.7764 17.727 1.08375 18.0027 0.258469C17.2892 0.66344 16.4988 0.957576 15.6577 1.11612C14.984 0.429261 14.0242 0 12.9621 0C10.9227 0 9.26908 1.58246 9.26908 3.53423C9.26908 3.81128 9.3018 4.08096 9.36478 4.33964C6.29559 4.19227 3.57449 2.78519 1.75304 0.646951C1.43523 1.16894 1.25305 1.77606 1.25305 2.42377C1.25305 3.64996 1.90512 4.73171 2.89597 5.36554C2.29058 5.34717 1.72119 5.18823 1.22323 4.92349C1.22302 4.93821 1.22302 4.95301 1.22302 4.96789C1.22302 6.68031 2.49596 8.1088 4.18538 8.43349C3.87542 8.51422 3.54917 8.55743 3.21237 8.55743C2.97437 8.55743 2.74304 8.53531 2.51762 8.49403C2.98752 9.89816 4.35129 10.92 5.96729 10.9486C4.70341 11.8964 3.11105 12.4615 1.38094 12.4615C1.08289 12.4615 0.788913 12.4447 0.5 12.4121C2.13427 13.4149 4.07545 14 6.16092 14C12.9536 14 16.6679 8.61452 16.6679 3.94411C16.6679 3.79082 16.6643 3.63839 16.6572 3.48685C17.3787 2.98854 18.0049 2.36609 18.5 1.65729Z" fill="white"/>
</svg>
