<svg width="96" height="96" viewBox="0 0 96 96" fill="none" xmlns="http://www.w3.org/2000/svg">
<path fill-rule="evenodd" clip-rule="evenodd" d="M46.9981 20.0822C47.5506 19.5286 48.4484 19.5286 49.0019 20.0822L60.3346 31.4148C60.4661 31.5463 60.5705 31.7024 60.6418 31.8743C60.713 32.0461 60.7497 32.2303 60.7497 32.4164C60.7498 32.6024 60.7132 32.7866 60.642 32.9585C60.5709 33.1304 60.4666 33.2866 60.3351 33.4181C60.2036 33.5497 60.0475 33.6541 59.8756 33.7253C59.7038 33.7966 59.5196 33.8333 59.3335 33.8333C59.1475 33.8334 58.9633 33.7968 58.7914 33.7256C58.6195 33.6545 58.4633 33.5502 58.3317 33.4187L49.4174 24.5043V59.333C49.4174 59.7088 49.2681 60.0692 49.0024 60.3349C48.7367 60.6006 48.3763 60.7499 48.0005 60.7499C47.6248 60.7499 47.2644 60.6006 46.9987 60.3349C46.733 60.0692 46.5837 59.7088 46.5837 59.333V24.5043L37.6693 33.4187C37.4036 33.6845 37.0431 33.834 36.6672 33.8341C36.2913 33.8342 35.9308 33.6849 35.6649 33.4192C35.399 33.1535 35.2496 32.793 35.2495 32.4171C35.2494 32.0412 35.3986 31.6807 35.6644 31.4148L46.9981 20.0822Z" fill="white" fill-opacity="0.2"/>
<path d="M50.4174 26.9185L57.6246 34.1258L57.6248 34.126C57.8493 34.3503 58.1157 34.5282 58.409 34.6496C58.7022 34.771 59.0164 34.8334 59.3338 34.8333C59.6512 34.8332 59.9654 34.7706 60.2585 34.6491L59.8756 33.7253L60.2585 34.6491C60.5517 34.5276 60.818 34.3495 61.0424 34.125C61.2667 33.9006 61.4447 33.6342 61.566 33.3409C61.6874 33.0477 61.7498 32.7334 61.7497 32.4161C61.7496 32.0988 61.6871 31.7845 61.5655 31.4913C61.444 31.1983 61.266 30.932 61.0417 30.7077C61.0416 30.7076 61.0415 30.7076 61.0415 30.7075L49.709 19.3751C48.7654 18.4315 47.2342 18.4304 46.2906 19.3754C46.2905 19.3755 46.2904 19.3756 46.2903 19.3757L34.9573 30.7076L34.9571 30.7079C34.5039 31.1613 34.2493 31.7763 34.2495 32.4174C34.2497 33.0585 34.5045 33.6733 34.958 34.1265C35.4114 34.5797 36.0264 34.8342 36.6675 34.8341C37.3085 34.8339 37.9232 34.5791 38.3764 34.1258C38.3765 34.1257 38.3765 34.1256 38.3766 34.1256L45.5837 26.9185V59.333C45.5837 59.974 45.8383 60.5888 46.2916 61.042C46.7448 61.4953 47.3595 61.7499 48.0005 61.7499C48.6415 61.7499 49.2562 61.4953 49.7095 61.042C50.1627 60.5888 50.4174 59.974 50.4174 59.333V26.9185Z" stroke="white" stroke-opacity="0.2" stroke-width="2"/>
<path fill-rule="evenodd" clip-rule="evenodd" d="M21.0836 46.5826C21.8656 46.5826 22.4999 47.2169 22.4999 47.9989C22.4999 62.0823 33.9165 73.4989 47.9999 73.4989C62.0834 73.4989 73.4999 62.0823 73.4999 47.9989C73.4999 47.6231 73.6492 47.2627 73.9149 46.997C74.1806 46.7313 74.541 46.582 74.9168 46.582C75.2926 46.582 75.6529 46.7313 75.9187 46.997C76.1844 47.2627 76.3336 47.6231 76.3336 47.9989C76.3336 63.6474 63.6474 76.3326 47.9999 76.3326C32.3514 76.3326 19.6663 63.6463 19.6663 47.9989C19.6663 47.2169 20.3006 46.5826 21.0836 46.5826Z" fill="white" fill-opacity="0.2"/>
<path d="M23.4999 47.9989C23.4999 46.6646 22.4179 45.5826 21.0836 45.5826C19.7488 45.5826 18.6663 46.6641 18.6663 47.9989C18.6663 64.1986 31.7991 77.3326 47.9999 77.3326C64.1996 77.3326 77.3336 64.1997 77.3336 47.9989C77.3336 47.3579 77.079 46.7432 76.6258 46.2899C76.1725 45.8367 75.5578 45.582 74.9168 45.582C74.2758 45.582 73.6611 45.8367 73.2078 46.2899C72.7546 46.7432 72.4999 47.3579 72.4999 47.9989C72.4999 61.53 61.5311 72.4989 47.9999 72.4989C34.4688 72.4989 23.4999 61.53 23.4999 47.9989Z" stroke="white" stroke-opacity="0.2" stroke-width="2"/>
</svg>
