<?xml version="1.0" standalone="no"?>
<!DOCTYPE svg PUBLIC "-//W3C//DTD SVG 20010904//EN"
 "http://www.w3.org/TR/2001/REC-SVG-20010904/DTD/svg10.dtd">
<svg version="1.0" xmlns="http://www.w3.org/2000/svg"
 width="1024.000000pt" height="1024.000000pt" viewBox="0 0 1024.000000 1024.000000"
 preserveAspectRatio="xMidYMid meet">
<metadata>
Created by potrace 1.14, written by Peter Selinger 2001-2017
</metadata>
<g transform="translate(0.000000,1024.000000) scale(0.100000,-0.100000)"
fill="#000000" stroke="none">
<path d="M4595 7985 c1 -361 -2 -658 -6 -660 -3 -3 -123 -5 -265 -5 -282 0
-660 -1 -684 -1 -17 -1 -2086 -1 -2110 0 -33 0 -436 0 -450 0 -8 -1 -226 0
-485 0 -259 1 -498 1 -533 1 l-63 0 6 -182 c7 -227 12 -299 31 -458 2 -19 6
-57 9 -85 4 -27 8 -61 10 -75 2 -14 7 -45 10 -70 3 -25 8 -56 10 -70 7 -29 14
-73 20 -115 3 -16 9 -50 16 -75 6 -25 12 -57 14 -72 2 -15 8 -44 14 -65 6 -21
12 -49 15 -63 5 -28 52 -209 65 -255 36 -122 56 -182 64 -192 5 -7 7 -13 4
-13 -4 0 10 -44 29 -97 19 -54 40 -114 46 -133 5 -19 13 -39 16 -45 4 -5 7
-12 7 -15 1 -3 9 -22 18 -44 9 -21 17 -43 17 -48 0 -6 6 -22 14 -36 7 -15 18
-38 24 -52 82 -195 324 -668 353 -690 3 -3 9 -15 13 -27 4 -13 12 -23 17 -23
5 0 9 -6 9 -12 0 -7 27 -53 60 -102 33 -48 60 -90 60 -92 0 -3 31 -48 70 -102
38 -53 75 -105 82 -115 7 -11 21 -29 30 -40 10 -12 21 -26 25 -32 98 -125 176
-223 228 -281 180 -204 406 -429 570 -569 32 -27 63 -55 69 -60 22 -20 202
-162 261 -206 33 -24 62 -46 65 -49 3 -3 12 -9 21 -15 8 -5 87 -58 175 -116
144 -96 196 -129 312 -195 21 -11 55 -31 77 -44 67 -39 397 -202 435 -215 3
-1 16 -7 30 -13 81 -35 176 -74 185 -76 6 -1 26 -9 45 -17 19 -9 78 -30 130
-48 52 -18 102 -36 110 -39 8 -3 17 -6 20 -7 24 -8 127 -39 135 -42 97 -28
124 -35 144 -39 14 -3 29 -8 35 -11 6 -4 19 -8 31 -9 11 -1 56 -11 100 -22
147 -37 407 -86 570 -106 213 -27 392 -39 580 -40 l139 -1 0 645 0 644 -164 2
c-148 2 -246 7 -320 19 -14 2 -41 6 -60 9 -50 8 -81 14 -152 32 -5 1 -9 2 -10
4 -2 1 -16 4 -33 6 -16 3 -37 7 -45 11 -8 3 -18 7 -22 8 -5 2 -10 4 -13 5 -3
1 -8 3 -12 4 -18 4 -91 29 -128 43 -22 8 -49 19 -60 23 -11 4 -69 31 -129 60
-329 158 -595 381 -839 700 -131 172 -301 513 -343 690 -2 8 -11 42 -20 75 -9
33 -17 65 -18 70 -31 144 -41 209 -51 335 -11 127 -6 358 10 460 2 14 6 45 9
70 4 25 8 52 10 60 1 8 6 33 10 55 5 22 19 81 33 130 14 50 26 97 28 105 15
76 156 384 224 490 19 30 46 73 60 95 27 41 116 160 138 183 7 7 13 18 13 23
0 6 4 8 9 4 5 -3 12 3 16 13 6 22 184 196 260 257 28 22 52 43 55 46 12 13
172 120 241 161 75 45 104 59 127 64 8 1 22 10 31 18 10 9 21 13 24 9 4 -3 7
-1 7 5 0 7 3 11 8 10 4 -1 16 3 28 9 13 8 73 10 185 8 177 -4 261 -12 374 -34
198 -38 358 -89 530 -169 348 -162 649 -409 873 -718 40 -55 77 -104 82 -111
6 -7 10 -15 10 -18 0 -3 15 -29 33 -58 77 -121 207 -421 232 -537 2 -8 10 -42
19 -74 9 -33 14 -62 11 -64 -3 -3 -1 -10 4 -16 5 -6 12 -33 15 -61 4 -27 9
-57 11 -65 3 -8 7 -42 10 -75 3 -33 7 -76 10 -95 6 -48 6 -297 0 -340 -3 -19
-7 -66 -10 -105 -2 -38 -10 -95 -16 -125 -7 -30 -13 -64 -14 -75 0 -11 -4 -29
-8 -40 -3 -11 -8 -33 -11 -49 -7 -42 -54 -195 -71 -234 -8 -18 -15 -37 -15
-42 0 -11 -21 -61 -82 -190 -47 -101 -141 -257 -215 -358 -112 -152 -265 -312
-398 -418 -27 -21 -52 -41 -55 -44 -31 -31 -216 -149 -320 -203 -41 -21 -78
-42 -83 -46 -4 -4 183 -6 415 -5 233 2 909 6 1503 9 594 3 1424 8 1845 11 421
3 775 5 788 5 l23 -1 -6 178 c-3 97 -7 202 -9 232 -5 79 -17 201 -21 230 -2
14 -6 48 -10 75 -3 28 -7 59 -9 70 -2 11 -7 47 -11 80 -4 32 -9 68 -12 80 -4
21 -9 46 -19 105 -3 19 -8 46 -11 60 -3 14 -6 34 -8 45 -18 102 -111 466 -141
549 -8 22 -17 51 -19 62 -6 25 -72 219 -85 249 -5 11 -21 52 -36 90 -14 39
-33 86 -41 105 -8 19 -19 44 -23 55 -61 147 -205 435 -303 605 -91 158 -334
529 -384 587 -16 17 -37 44 -48 59 -41 56 -104 136 -140 178 -5 6 -39 45 -75
86 -128 149 -334 359 -475 485 -43 39 -86 77 -96 87 -9 9 -20 14 -23 11 -3 -4
-6 -1 -6 5 0 10 -252 215 -335 272 -20 14 -42 31 -50 38 -7 6 -18 12 -23 12
-6 0 -12 4 -14 8 -7 20 -501 332 -524 332 -3 0 -19 9 -35 21 -16 11 -29 17
-29 14 0 -3 -12 2 -27 12 -47 31 -338 171 -413 198 -19 7 -55 22 -80 33 -50
22 -209 83 -225 86 -5 1 -14 4 -20 7 -12 7 -119 43 -122 41 -2 -1 -18 5 -38
14 -19 8 -35 12 -35 9 0 -3 -9 -1 -21 5 -11 6 -28 13 -37 15 -9 2 -48 13 -87
25 -38 12 -78 23 -88 25 -10 2 -26 6 -35 9 -9 3 -28 8 -42 11 -14 3 -63 14
-110 25 -47 11 -101 23 -120 26 -19 3 -51 9 -70 14 -20 5 -51 12 -70 14 -19 3
-48 8 -65 11 -59 10 -91 15 -135 20 -25 3 -63 8 -85 11 -22 4 -58 8 -80 10
-22 1 -62 5 -90 9 -83 10 -171 15 -355 20 l-175 6 0 -656z"/>
</g>
</svg>
